<?xml version="1.0" standalone="yes"?>
<svg width="225" height="225">
<path style="fill:#ffffff; stroke:none;" d="M0 0L0 99C4.49444 88.581 5.17111 76.5351 10.2585 66C23.4881 38.6035 46.8909 16.0738 76 6.33333C83.4973 3.82458 91.0278 1.16542 99 1C90.8817 -2.40659 77.7968 0 69 0L0 0z"/>
<path style="fill:#ebf1d3; stroke:none;" d="M99 0C100.248 0.684814 100.548 0.748779 102 1C100.752 0.315231 100.451 0.25119 99 0z"/>
<path style="fill:#d9e3a5; stroke:none;" d="M102 0C103.248 0.684814 103.548 0.748779 105 1C103.752 0.315231 103.451 0.25119 102 0z"/>
<path style="fill:#bdd15b; stroke:none;" d="M105 0.424377C82.4425 3.3877 62.4164 9.15025 44 23.2361C32.622 31.9386 23.2731 42.8187 15.811 55C-17.6547 109.63 5.06392 183.262 61 212.68C81.4572 223.439 105.313 226.502 128 223.714C143.581 221.799 158.756 216.335 172 207.947C189.588 196.807 204.696 180.95 213.68 162C236.354 114.173 223.105 52.7517 179 21.7207C168.204 14.1249 156.73 8.18684 144 4.57948C131.996 1.17778 117.448 -1.21092 105 0.424377z"/>
<path style="fill:#d3df99; stroke:none;" d="M117 0C118.769 0.778931 120.036 0.912415 122 1C120.231 0.221069 118.964 0.0875854 117 0z"/>
<path style="fill:#e7efc9; stroke:none;" d="M122 0C123.248 0.684814 123.548 0.748779 125 1C123.752 0.315231 123.452 0.25119 122 0z"/>
<path style="fill:#ffffff; stroke:none;" d="M125 0C128.732 1.67519 133.02 1.77298 137 2.74228C145.248 4.75122 153.358 7.53511 161 11.2593C187.401 24.1255 208.442 47.3046 218.308 75C221.061 82.7292 223.829 90.7356 224 99C227.407 90.8817 225 77.7968 225 69L225 0L125 0z"/>
<path style="fill:#e9efcd; stroke:none;" d="M92 1C93.2484 1.68481 93.5484 1.74878 95 2C93.7517 1.31525 93.4515 1.25119 92 1z"/>
<path style="fill:#dbe5ad; stroke:none;" d="M129.667 1.33333C129.222 1.77783 130.278 1.7222 130.333 1.66667C130.778 1.22221 129.722 1.27773 129.667 1.33333z"/>
<path style="fill:#d5e19f; stroke:none;" d="M88.6667 2.33333C88.2222 2.77783 89.2778 2.72221 89.3333 2.66667C89.7777 2.22227 88.7223 2.27774 88.6667 2.33333z"/>
<path style="fill:#e7efc9; stroke:none;" d="M135.667 2.33333C135.222 2.77783 136.278 2.72218 136.333 2.66667C136.778 2.22224 135.722 2.27776 135.667 2.33333z"/>
<path style="fill:#cddd89; stroke:none;" d="M84.6667 3.33333C84.2222 3.77783 85.2778 3.72221 85.3333 3.66667C85.7778 3.22223 84.7222 3.2778 84.6667 3.33333z"/>
<path style="fill:#ebf1d3; stroke:none;" d="M143.667 4.33333C143.222 4.77776 144.278 4.72224 144.333 4.66667C144.778 4.22223 143.722 4.27774 143.667 4.33333z"/>
<path style="fill:#d3df99; stroke:none;" d="M72 7L73 8L72 7M152 7L153 8L152 7z"/>
<path style="fill:#e3ebbd; stroke:none;" d="M69 8L70 9L69 8z"/>
<path style="fill:#d9e3a5; stroke:none;" d="M67 9L68 10L67 9M157 9L158 10L157 9M57 14L58 15L57 14M167 14L168 15L167 14M52 17L53 18L52 17M172 17L173 18L172 17z"/>
<path style="fill:#d5e19f; stroke:none;" d="M49 19L50 20L49 19M175 19L176 20L175 19z"/>
<path style="fill:#dfe9b7; stroke:none;" d="M46 21L47 22L46 21M178 21L179 22L178 21z"/>
<path style="fill:#e3ebbd; stroke:none;" d="M42 24L43 25L42 24M182 24L183 25L182 24z"/>
<path style="fill:#d3df99; stroke:none;" d="M41 25L42 26L41 25z"/>
<path style="fill:#e3ebbd; stroke:none;" d="M34 31L35 32L34 31M190 31L191 32L190 31M33 32L34 33L33 32M191 32L192 33L191 32M32 33L33 34L32 33M192 33L193 34L192 33M31 34L32 35L31 34M193 34L194 35L193 34z"/>
<path style="fill:#d3df99; stroke:none;" d="M25 41L26 42L25 41M199 41L200 42L199 41z"/>
<path style="fill:#e3ebbd; stroke:none;" d="M24 42L25 43L24 42M200 42L201 43L200 42z"/>
<path style="fill:#dfe9b7; stroke:none;" d="M91 45C95.2152 46.7687 100.464 46 105 46L134 46C129.785 44.2313 124.536 45 120 45L91 45M21 46L22 47L21 46z"/>
<path style="fill:#d9e3a5; stroke:none;" d="M88 46L89 47L88 46z"/>
<path style="fill:#ffffff; stroke:none;" d="M84 84L61 84C57.4034 84.0002 53.1832 83.4427 50.0586 85.6034C45.7438 88.5871 46.0021 93.3276 46 98L46 128C46.0021 132.672 45.7438 137.413 50.0586 140.397C53.1832 142.557 57.4034 142 61 142L84 142L84 165C84.0014 168.62 83.5601 172.755 85.7423 175.891C88.4434 179.774 92.6991 179.977 97 179.999C106.999 180.052 117.001 180.016 127 180C131.37 179.993 136.339 180.244 139.566 176.721C144.791 171.017 141.558 158.893 141.09 152C140.897 149.164 140.392 144.815 142.603 142.603C144.859 140.348 149.114 141.001 152 141C161.664 140.996 178.737 144.736 178.995 131C179.202 120.009 179.001 108.994 179 98C179 93.3689 179.726 87.648 174.941 85.0278C169.05 81.801 157.59 84.0135 151 84C148.054 83.9939 143.919 84.5157 142.028 81.6821C140.612 79.5597 141.005 76.4148 141 74L140.999 58C140.98 54.2866 141.049 50.2191 137.772 47.7423C134.356 45.1612 129.01 46 125 46L97 46C92.6485 46.0073 87.6364 45.7433 85.179 50.1088C83.4117 53.2484 84.0002 57.5401 84 61L84 84z"/>
<path style="fill:#dfe9b7; stroke:none;" d="M203 46L204 47L203 46z"/>
<path style="fill:#d5e19f; stroke:none;" d="M19 49L20 50L19 49M205 49L206 50L205 49z"/>
<path style="fill:#e3ebbd; stroke:none;" d="M84 50L85 51L84 50z"/>
<path style="fill:#d9e3a5; stroke:none;" d="M17 52L18 53L17 52z"/>
<path style="fill:#f3f5e3; stroke:none;" d="M83 52L83 84C85.599 77.8063 84.0004 68.6856 84 62C83.9998 58.5814 84.3283 55.1656 83 52z"/>
<path style="fill:#b9cd4d; stroke:none;" d="M142 52L142 83L172 83C164.112 79.6899 151.551 82 143 82C143 73.1864 145.411 60.1277 142 52z"/>
<path style="fill:#d9e3a5; stroke:none;" d="M207 52L208 53L207 52z"/>
<path style="fill:#e7efc9; stroke:none;" d="M141 53L141 83C142.328 79.8344 142 76.4186 142 73C142 66.8462 143.395 58.707 141 53z"/>
<path style="fill:#f3f7e1; stroke:none;" d="M94 55C97.9586 56.6611 102.74 56 107 56L132 56C128.041 54.3389 123.26 55 119 55L94 55z"/>
<path style="fill:#dbe5ab; stroke:none;" d="M93 56L93 93L56 93C63.6368 96.2045 75.7318 94.0037 84 94C86.6168 93.9988 91.1087 94.7495 92.9722 92.3966C94.7718 90.1245 93.9998 85.6934 94 83C94.0005 74.993 96.1048 63.3992 93 56z"/>
<path style="fill:#bdd15b; stroke:none;" d="M94 56L94 82C93.9998 85.1008 94.8225 89.9707 92.3966 92.3966C89.9708 94.8224 85.1008 93.9998 82 94L56 94L56 131L82 131C85.1008 131 89.9707 130.178 92.3966 132.603C94.8225 135.029 93.9998 139.899 94 143L94 169L131 169L131 143C131 139.899 130.178 135.029 132.603 132.603C135.029 130.178 139.899 131 143 131L169 131L169 94L143 94C139.899 93.9998 135.029 94.8225 132.603 92.3966C130.178 89.9708 131 85.1008 131 82L131 56L94 56z"/>
<path style="fill:#cfdd91; stroke:none;" d="M131 56L131 93C132.441 89.5654 132 85.7024 132 82C132 74.2563 134.004 63.1593 131 56z"/>
<path style="fill:#d9e3a5; stroke:none;" d="M14 57L15 58L14 57M210 57L211 58L210 57M9 67L10 68L9 67z"/>
<path style="fill:#dbe5ab; stroke:none;" d="M215 67L216 68L215 67z"/>
<path style="fill:#e3ebbd; stroke:none;" d="M8 69L9 70L8 69z"/>
<path style="fill:#d5e19f; stroke:none;" d="M7 72L8 73L7 72M217 72L218 73L217 72z"/>
<path style="fill:#cddb85; stroke:none;" d="M54 83C61.8884 86.3101 74.4492 84 83 84C75.1116 80.6899 62.5508 83 54 83z"/>
<path style="fill:#f3f5e3; stroke:none;" d="M142 83C150.367 86.5108 163.924 84 173 84C164.633 80.4892 151.076 83 142 83z"/>
<path style="fill:#cddd89; stroke:none;" d="M3.33333 84.6667C3.27778 84.7222 3.22222 85.7778 3.66667 85.3333C3.72221 85.2778 3.7778 84.2222 3.33333 84.6667M221.333 84.6667C221.278 84.7222 221.222 85.7779 221.667 85.3333C221.722 85.2778 221.778 84.2222 221.333 84.6667z"/>
<path style="fill:#d3df99; stroke:none;" d="M176 85L177 86L176 85z"/>
<path style="fill:#dfe9b7; stroke:none;" d="M48 86L49 87L48 86z"/>
<path style="fill:#d5e19f; stroke:none;" d="M177 86L178 87L177 86z"/>
<path style="fill:#dbe5ab; stroke:none;" d="M47 87L48 88L47 87z"/>
<path style="fill:#d5e19f; stroke:none;" d="M2.33333 88.6667C2.27778 88.7222 2.22222 89.7778 2.66667 89.3333C2.72222 89.2778 2.77778 88.2222 2.33333 88.6667M222.333 88.6667C222.278 88.7222 222.222 89.7778 222.667 89.3333C222.722 89.2777 222.778 88.2223 222.333 88.6667z"/>
<path style="fill:#b7cd4b; stroke:none;" d="M180 89L180 134C181.661 130.041 181 125.26 181 121L181 101C181 97.0172 181.552 92.6987 180 89z"/>
<path style="fill:#f9fbf1; stroke:none;" d="M179 90L179 135C180.661 131.041 180 126.26 180 122L180 102C180 98.0172 180.552 93.6987 179 90z"/>
<path style="fill:#dfe9b7; stroke:none;" d="M45 91L45 135C46.552 131.301 46 126.983 46 123L46 103C46 99.0172 46.552 94.6987 45 91z"/>
<path style="fill:#e9efcd; stroke:none;" d="M1 92L1 95C1.6961 93.4463 1.6961 93.5537 1 92M223 92L223 95C223.696 93.4463 223.696 93.5537 223 92z"/>
<path style="fill:#dbe5ab; stroke:none;" d="M132 93C135.959 94.6611 140.74 94 145 94L169 94C165.041 92.3389 160.26 93 156 93L132 93z"/>
<path style="fill:#e3ebbd; stroke:none;" d="M169 93L169 132C172.206 124.361 170 112.271 170 104C170 100.298 170.441 96.4346 169 93z"/>
<path style="fill:#f3f7e1; stroke:none;" d="M55 94L55 131C58.0042 123.841 56 112.744 56 105C56 101.298 56.4412 97.4346 55 94z"/>
<path style="fill:#ebf1d3; stroke:none;" d="M0 99L0 102C0.696101 100.446 0.696094 100.554 0 99M224 99L224 102C224.696 100.446 224.696 100.554 224 99z"/>
<path style="fill:#d9e3a5; stroke:none;" d="M0 102L0 105C0.696103 103.446 0.696099 103.554 0 102M224 102L224 105C224.696 103.446 224.696 103.554 224 102z"/>
<path style="fill:#d3df99; stroke:none;" d="M0 117L0 122C0.829892 119.97 0.829892 119.03 0 117M224 117L224 122C224.83 119.969 224.83 119.03 224 117z"/>
<path style="fill:#e7efc9; stroke:none;" d="M0 122L0 125C0.696103 123.446 0.696099 123.554 0 122M224 122L224 125C224.696 123.446 224.696 123.554 224 122z"/>
<path style="fill:#ffffff; stroke:none;" d="M0 125L0 225L99 225C89.3224 220.825 77.963 219.833 68 215.573C44.7234 205.618 25.3252 187.166 13.3086 165C9.37714 157.748 6.13042 149.988 4.02546 142C2.57987 136.514 2.30102 130.126 0 125M224 125C221.906 173.77 173.77 221.906 125 224C133.357 227.507 146.94 225 156 225L225 225L225 156C225 146.94 227.507 133.357 224 125z"/>
<path style="fill:#dbe5ad; stroke:none;" d="M1.33333 129.667C1.27777 129.722 1.22223 130.778 1.66667 130.333C1.72222 130.278 1.77777 129.222 1.33333 129.667M223.333 129.667C223.278 129.722 223.222 130.778 223.667 130.333C223.722 130.278 223.778 129.222 223.333 129.667z"/>
<path style="fill:#dbe5ab; stroke:none;" d="M56 131C59.9586 132.661 64.7397 132 69 132L93 132C89.0414 130.339 84.2603 131 80 131L56 131z"/>
<path style="fill:#cfdd91; stroke:none;" d="M132 131C135.959 132.661 140.74 132 145 132L169 132C165.041 130.339 160.26 131 156 131L132 131z"/>
<path style="fill:#dbe5ab; stroke:none;" d="M93 132L93 169C96.0042 161.841 94 150.744 94 143C94 139.298 94.4412 135.435 93 132M131 132L131 169C134.004 161.841 132 150.744 132 143C132 139.298 132.441 135.435 131 132z"/>
<path style="fill:#e7efc9; stroke:none;" d="M2.33333 135.667C2.27777 135.722 2.22223 136.778 2.66667 136.333C2.7222 136.278 2.77779 135.222 2.33333 135.667M222.333 135.667C222.278 135.722 222.222 136.778 222.667 136.333C222.722 136.278 222.778 135.222 222.333 135.667z"/>
<path style="fill:#dbe5ad; stroke:none;" d="M47 138L48 139L47 138z"/>
<path style="fill:#e3ebbd; stroke:none;" d="M48 139L49 140L48 139z"/>
<path style="fill:#d9e3a5; stroke:none;" d="M49 140L50 141L49 140z"/>
<path style="fill:#e3ebbd; stroke:none;" d="M174 140L175 141L174 140z"/>
<path style="fill:#e7efc9; stroke:none;" d="M142 141C150.367 144.511 163.924 142 173 142C164.633 138.489 151.076 141 142 141z"/>
<path style="fill:#cddb85; stroke:none;" d="M54 142C61.8884 145.31 74.4492 143 83 143L83 172C86.4105 163.872 84 150.814 84 142L54 142z"/>
<path style="fill:#f7f9eb; stroke:none;" d="M141 142L141 156C142.667 152.028 142.667 145.972 141 142z"/>
<path style="fill:#b9cd4d; stroke:none;" d="M142 142L142 162C144.295 156.531 143 148.901 143 143L173 143C164.633 139.489 151.076 142 142 142z"/>
<path style="fill:#ebf1d3; stroke:none;" d="M4.33333 143.667C4.27779 143.722 4.22222 144.778 4.66667 144.333C4.72224 144.278 4.77776 143.222 4.33333 143.667M220.333 143.667C220.278 143.722 220.222 144.778 220.667 144.333C220.722 144.278 220.778 143.222 220.333 143.667z"/>
<path style="fill:#d5e19f; stroke:none;" d="M7 152L8 153L7 152M217 152L218 153L217 152z"/>
<path style="fill:#e3ebbd; stroke:none;" d="M8 155L9 156L8 155z"/>
<path style="fill:#d9e3a5; stroke:none;" d="M9 157L10 158L9 157z"/>
<path style="fill:#dbe5ab; stroke:none;" d="M215 157L216 158L215 157z"/>
<path style="fill:#c9d97f; stroke:none;" d="M142 165L142 172C143.059 169.466 143.059 167.534 142 165z"/>
<path style="fill:#d9e3a5; stroke:none;" d="M14 167L15 168L14 167M210 167L211 168L210 167z"/>
<path style="fill:#f3f7e1; stroke:none;" d="M94 169C97.9586 170.661 102.74 170 107 170L131 170C127.041 168.339 122.26 169 118 169L94 169z"/>
<path style="fill:#d9e3a5; stroke:none;" d="M17 172L18 173L17 172M207 172L208 173L207 172z"/>
<path style="fill:#d5e19f; stroke:none;" d="M19 175L20 176L19 175M205 175L206 176L205 175z"/>
<path style="fill:#dfe9b7; stroke:none;" d="M21 178L22 179L21 178M203 178L204 179L203 178z"/>
<path style="fill:#e3ebbd; stroke:none;" d="M135 179L136 180L135 179z"/>
<path style="fill:#b7cd4b; stroke:none;" d="M91 180C95.4687 181.875 101.191 181 106 181L135 181C130.531 179.125 124.809 180 120 180L91 180z"/>
<path style="fill:#e3ebbd; stroke:none;" d="M24 182L25 183L24 182M200 182L201 183L200 182M31 190L32 191L31 190M193 190L194 191L193 190M32 191L33 192L32 191M192 191L193 192L192 191M33 192L34 193L33 192M191 192L192 193L191 192M34 193L35 194L34 193M190 193L191 194L190 193z"/>
<path style="fill:#d3df99; stroke:none;" d="M41 199L42 200L41 199z"/>
<path style="fill:#e3ebbd; stroke:none;" d="M42 200L43 201L42 200M182 200L183 201L182 200z"/>
<path style="fill:#dfe9b7; stroke:none;" d="M46 203L47 204L46 203M178 203L179 204L178 203z"/>
<path style="fill:#d5e19f; stroke:none;" d="M49 205L50 206L49 205M175 205L176 206L175 205z"/>
<path style="fill:#d9e3a5; stroke:none;" d="M52 207L53 208L52 207M172 207L173 208L172 207M57 210L58 211L57 210M167 210L168 211L167 210z"/>
<path style="fill:#dbe5ab; stroke:none;" d="M67 215L68 216L67 215M157 215L158 216L157 215z"/>
<path style="fill:#d5e19f; stroke:none;" d="M72 217L73 218L72 217M152 217L153 218L152 217z"/>
<path style="fill:#ebf1d3; stroke:none;" d="M143.667 220.333C143.222 220.778 144.278 220.722 144.333 220.667C144.778 220.222 143.722 220.278 143.667 220.333z"/>
<path style="fill:#cddd89; stroke:none;" d="M84.6667 221.333C84.2222 221.778 85.2778 221.722 85.3333 221.667C85.7778 221.222 84.7222 221.278 84.6667 221.333z"/>
<path style="fill:#d5e19f; stroke:none;" d="M88.6667 222.333C88.2222 222.778 89.2778 222.722 89.3333 222.667C89.7778 222.222 88.7222 222.278 88.6667 222.333z"/>
<path style="fill:#e7efc9; stroke:none;" d="M135.667 222.333C135.222 222.778 136.278 222.722 136.333 222.667C136.778 222.222 135.722 222.278 135.667 222.333z"/>
<path style="fill:#e9efcd; stroke:none;" d="M92 223C93.2483 223.685 93.5484 223.749 95 224C93.7516 223.315 93.4516 223.251 92 223z"/>
<path style="fill:#dbe5ad; stroke:none;" d="M129.667 223.333C129.222 223.778 130.278 223.722 130.333 223.667C130.778 223.222 129.722 223.278 129.667 223.333z"/>
<path style="fill:#ebf1d3; stroke:none;" d="M99 224C100.248 224.685 100.548 224.749 102 225C100.752 224.315 100.452 224.251 99 224z"/>
<path style="fill:#d9e3a5; stroke:none;" d="M102 224C103.248 224.685 103.548 224.749 105 225C103.752 224.315 103.452 224.251 102 224z"/>
<path style="fill:#d3df99; stroke:none;" d="M117 224C118.769 224.779 120.036 224.912 122 225C120.231 224.221 118.964 224.088 117 224z"/>
<path style="fill:#e7efc9; stroke:none;" d="M122 224C123.248 224.685 123.548 224.749 125 225C123.752 224.315 123.452 224.251 122 224z"/>
</svg>
